<!DOCTYPE svg PUBLIC "-//W3C//DTD SVG 1.1//EN" "http://www.w3.org/Graphics/SVG/1.1/DTD/svg11.dtd">
<!-- Uploaded to: SVG Repo, www.svgrepo.com, Transformed by: SVG Repo Mixer Tools -->
<svg fill="#555555" height="36px" width="48px" version="1.1" id="Layer_1" xmlns="http://www.w3.org/2000/svg" xmlns:xlink="http://www.w3.org/1999/xlink" viewBox="0 0 512 512" xml:space="preserve">

<g id="SVGRepo_bgCarrier" stroke-width="0"/>

<g id="SVGRepo_tracerCarrier" stroke-linecap="round" stroke-linejoin="round"/>

<g id="SVGRepo_iconCarrier"> <g> <g> <g> <path d="M256,0C114.618,0,0,114.618,0,256s114.618,256,256,256s256-114.618,256-256S397.382,0,256,0z M256,469.333 c-117.818,0-213.333-95.515-213.333-213.333S138.182,42.667,256,42.667S469.333,138.182,469.333,256S373.818,469.333,256,469.333 z"/> <path d="M213.333,128h-64C137.551,128,128,137.551,128,149.333v213.333c0,11.782,9.551,21.333,21.333,21.333h64 c11.782,0,21.333-9.551,21.333-21.333V149.333C234.667,137.551,225.115,128,213.333,128z M192,341.333h-21.333V170.667H192 V341.333z"/> <path d="M362.667,128h-64c-11.782,0-21.333,9.551-21.333,21.333v213.333c0,11.782,9.551,21.333,21.333,21.333h64 c11.782,0,21.333-9.551,21.333-21.333V149.333C384,137.551,374.449,128,362.667,128z M341.333,341.333H320V170.667h21.333 V341.333z"/> </g> </g> </g> </g>

</svg>
